<svg viewBox="0 0 46 46" id="windows-icon"><title>Ico/Verticals/Windows</title><g stroke-width=".722" stroke="currentColor" fill="none" fill-rule="evenodd"><path d="M.392 45.396h44.423V40.69H.392zM39.196 40.69H6.01V15.17C6.01 7.228 12.394.73 20.194.73h5.064c7.667 0 13.94 6.387 13.94 14.193V40.69z"></path><path d="M6.01 25.214h33.186V22.78H6.01zm16.71-2.434h.346V.73h-.345zM7.533 40.69h7.797v-5.08H7.533z"></path><path d="M11.936 35.402c-.758-.563-.606-2.092.34-3.414.947-1.323 3.09-1.376 3.09-1.376s.605 2.092-.342 3.414c-.947 1.323-2.33 1.94-3.088 1.376z"></path><path d="M10.927 35.402c.76-.563.606-2.092-.34-3.414C9.64 30.665 7.5 30.612 7.5 30.612s-.608 2.092.34 3.414c.946 1.323 2.33 1.94 3.087 1.376z"></path></g></svg>